<svg width="30" height="31" viewBox="0 0 30 31" fill="none" xmlns="http://www.w3.org/2000/svg">
<path fill-rule="evenodd" clip-rule="evenodd" d="M15 0.916992C23.271 0.916992 30 7.64599 30 15.917C30 24.188 23.271 30.917 15 30.917C6.729 30.917 0 24.188 0 15.917C0 7.64599 6.729 0.916992 15 0.916992ZM15 3.16699C7.9695 3.16699 2.25 8.88649 2.25 15.917C2.25 22.9475 7.9695 28.667 15 28.667C22.0305 28.667 27.75 22.9475 27.75 15.917C27.75 8.88649 22.0305 3.16699 15 3.16699Z" fill="#3B4144"/>
<path fill-rule="evenodd" clip-rule="evenodd" d="M11.3711 10.6137C10.9086 10.1512 10.1588 10.1512 9.69637 10.6137C9.23391 11.0762 9.23391 11.826 9.69637 12.2884L13.3249 15.917L9.69637 19.5456C9.2339 20.008 9.2339 20.7578 9.69637 21.2203C10.1588 21.6828 10.9086 21.6828 11.3711 21.2203L14.9997 17.5917L18.6282 21.2203C19.0907 21.6828 19.8405 21.6828 20.303 21.2203C20.7654 20.7578 20.7654 20.008 20.303 19.5456L16.6744 15.917L20.303 12.2884C20.7654 11.826 20.7654 11.0762 20.303 10.6137C19.8405 10.1512 19.0907 10.1512 18.6282 10.6137L14.9997 14.2423L11.3711 10.6137Z" fill="#3B4144"/>
</svg>
