<svg width="16" height="15" viewBox="0 0 16 15" fill="none" xmlns="http://www.w3.org/2000/svg">
<path fill-rule="evenodd" clip-rule="evenodd" d="M8 0C12.1355 0 15.5 3.3645 15.5 7.5C15.5 11.6355 12.1355 15 8 15C3.8645 15 0.5 11.6355 0.5 7.5C0.5 3.3645 3.8645 0 8 0ZM8 1.125C4.48475 1.125 1.625 3.98475 1.625 7.5C1.625 11.0152 4.48475 13.875 8 13.875C11.5152 13.875 14.375 11.0152 14.375 7.5C14.375 3.98475 11.5152 1.125 8 1.125Z" fill="#8C8C8C"/>
<path fill-rule="evenodd" clip-rule="evenodd" d="M6.18555 4.84835C5.95432 4.61712 5.57941 4.61712 5.34818 4.84835C5.11695 5.07958 5.11695 5.45448 5.34818 5.68571L7.16247 7.5L5.34818 9.31429C5.11695 9.54552 5.11695 9.92042 5.34818 10.1516C5.57941 10.3829 5.95431 10.3829 6.18555 10.1516L7.99983 8.33736L9.81412 10.1516C10.0454 10.3829 10.4203 10.3829 10.6515 10.1516C10.8827 9.92042 10.8827 9.54552 10.6515 9.31429L8.8372 7.5L10.6515 5.68571C10.8827 5.45448 10.8827 5.07958 10.6515 4.84835C10.4203 4.61712 10.0454 4.61712 9.81412 4.84835L7.99983 6.66264L6.18555 4.84835Z" fill="#8C8C8C"/>
</svg>
