<svg width="20" height="20" viewBox="0 0 20 20" fill="none" xmlns="http://www.w3.org/2000/svg">
<path fill-rule="evenodd" clip-rule="evenodd" d="M9.99984 1.66699C14.5948 1.66699 18.3332 5.40532 18.3332 10.0003C18.3332 14.5953 14.5948 18.3337 9.99984 18.3337C5.40484 18.3337 1.6665 14.5953 1.6665 10.0003C1.6665 5.40532 5.40484 1.66699 9.99984 1.66699ZM9.99984 2.91699C6.094 2.91699 2.9165 6.09449 2.9165 10.0003C2.9165 13.9062 6.094 17.0837 9.99984 17.0837C13.9057 17.0837 17.0832 13.9062 17.0832 10.0003C17.0832 6.09449 13.9057 2.91699 9.99984 2.91699Z" fill="#8C8C8C"/>
<path fill-rule="evenodd" clip-rule="evenodd" d="M7.98378 7.05405C7.72685 6.79712 7.3103 6.79712 7.05337 7.05405C6.79645 7.31097 6.79645 7.72753 7.05337 7.98445L9.06925 10.0003L7.05337 12.0162C6.79645 12.2731 6.79645 12.6897 7.05337 12.9466C7.3103 13.2035 7.72685 13.2035 7.98378 12.9466L9.99965 10.9307L12.0155 12.9466C12.2724 13.2035 12.689 13.2035 12.9459 12.9466C13.2029 12.6897 13.2029 12.2731 12.9459 12.0162L10.9301 10.0003L12.9459 7.98445C13.2029 7.72753 13.2029 7.31097 12.9459 7.05405C12.689 6.79712 12.2724 6.79712 12.0155 7.05405L9.99965 9.06992L7.98378 7.05405Z" fill="#8C8C8C"/>
</svg>
