<svg width="20" height="20" viewBox="0 0 20 20" fill="none" xmlns="http://www.w3.org/2000/svg">
<path fill-rule="evenodd" clip-rule="evenodd" d="M10 0C15.514 0 20 4.486 20 10C20 15.514 15.514 20 10 20C4.486 20 0 15.514 0 10C0 4.486 4.486 0 10 0ZM10 1.5C5.313 1.5 1.5 5.313 1.5 10C1.5 14.687 5.313 18.5 10 18.5C14.687 18.5 18.5 14.687 18.5 10C18.5 5.313 14.687 1.5 10 1.5ZM13.9482 9.0137C14.5012 9.0137 14.9482 9.4607 14.9482 10.0137C14.9482 10.5667 14.5012 11.0137 13.9482 11.0137C13.3952 11.0137 12.9432 10.5667 12.9432 10.0137C12.9432 9.4607 13.3862 9.0137 13.9382 9.0137H13.9482ZM9.9385 9.0137C10.4915 9.0137 10.9385 9.4607 10.9385 10.0137C10.9385 10.5667 10.4915 11.0137 9.9385 11.0137C9.3855 11.0137 8.9345 10.5667 8.9345 10.0137C8.9345 9.4607 9.3765 9.0137 9.9295 9.0137H9.9385ZM5.9297 9.0137C6.4827 9.0137 6.9297 9.4607 6.9297 10.0137C6.9297 10.5667 6.4827 11.0137 5.9297 11.0137C5.3767 11.0137 4.9247 10.5667 4.9247 10.0137C4.9247 9.4607 5.3677 9.0137 5.9207 9.0137H5.9297Z" fill="#595959"/>
</svg>
