<svg width="24" height="24" viewBox="0 0 24 24" fill="none" xmlns="http://www.w3.org/2000/svg">
<path d="M6 0C5.175 0 4.5 0.675 4.5 1.5V22.5C4.5 23.325 5.175 24 6 24H21C21.825 24 22.5 23.325 22.5 22.5V6L16.5 0H6Z" fill="#E2E5E7"/>
<path d="M18 6H22.5L16.5 0V4.5C16.5 5.325 17.175 6 18 6Z" fill="#B0B7BD"/>
<path d="M22.5 10.5L18 6H22.5V10.5Z" fill="#CAD1D8"/>
<path d="M19.5 19.5C19.5 19.9125 19.1625 20.25 18.75 20.25H2.25C1.8375 20.25 1.5 19.9125 1.5 19.5V12C1.5 11.5875 1.8375 11.25 2.25 11.25H18.75C19.1625 11.25 19.5 11.5875 19.5 12V19.5Z" fill="#F15642"/>
<path d="M4.76904 14.2099C4.76904 14.0119 4.92504 13.7959 5.17629 13.7959H6.56154C7.34154 13.7959 8.04354 14.3179 8.04354 15.3184C8.04354 16.2664 7.34154 16.7944 6.56154 16.7944H5.56029V17.5864C5.56029 17.8504 5.39229 17.9996 5.17629 17.9996C4.97829 17.9996 4.76904 17.8504 4.76904 17.5864V14.2099ZM5.56029 14.5511V16.0451H6.56154C6.96354 16.0451 7.28154 15.6904 7.28154 15.3184C7.28154 14.8991 6.96354 14.5511 6.56154 14.5511H5.56029Z" fill="white"/>
<path d="M9.2182 17.9994C9.0202 17.9994 8.8042 17.8914 8.8042 17.6281V14.2216C8.8042 14.0064 9.0202 13.8496 9.2182 13.8496H10.5914C13.3319 13.8496 13.2719 17.9994 10.6454 17.9994H9.2182ZM9.5962 14.5816V17.2681H10.5914C12.2107 17.2681 12.2827 14.5816 10.5914 14.5816H9.5962Z" fill="white"/>
<path d="M14.244 14.6304V15.5836H15.7732C15.9892 15.5836 16.2052 15.7996 16.2052 16.0089C16.2052 16.2069 15.9892 16.3689 15.7732 16.3689H14.244V17.6281C14.244 17.8381 14.0947 17.9994 13.8847 17.9994C13.6207 17.9994 13.4595 17.8381 13.4595 17.6281V14.2216C13.4595 14.0064 13.6215 13.8496 13.8847 13.8496H15.99C16.254 13.8496 16.41 14.0064 16.41 14.2216C16.41 14.4136 16.254 14.6296 15.99 14.6296H14.244V14.6304Z" fill="white"/>
<path d="M18.75 20.25H4.5V21H18.75C19.1625 21 19.5 20.6625 19.5 20.25V19.5C19.5 19.9125 19.1625 20.25 18.75 20.25Z" fill="#CAD1D8"/>
</svg>
